#!OML:ASF E:\acrobat2\Project_11_07_03\Capture day 1\Session 1\Acrobat.ASF
:FULLY-SPECIFIED
:DEGREES
171
root 8.32639 17.9592 -27.8019 12.3597 -86.5071 -5.62697
lowerback -7.77863 0.715595 1.38889
upperback -5.30863 0.702762 -0.415799
thorax -1.10076 0.239935 -1.15907
lowerneck -1.12802 -1.2889 -1.27263
upperneck 0.886275 -1.74667 3.30048
head 0.501791 -0.86106 1.21198
rclavicle 1.01753e-014 3.8763e-015
rhumerus -6.04645 -27.2844 -1.67912
rradius 20.6944
rwrist 19.328
rhand -7.80732 -45.2022
rfingers 7.12502
rthumb 18.0942 -74.3806
lclavicle 1.01753e-014 3.8763e-015
lhumerus 0.621395 9.22616 -2.0742
lradius 21.415
lwrist 13.1868
lhand -7.44486 -4.3302
lfingers 7.12502
lthumb 18.4429 24.8155
rfemur 7.63728 18.0886 12.9314
rtibia -3.62573
rfoot -29.6724 -31.0313
rtoes 7.57854
lfemur 6.15506 -10.469 -6.17891
ltibia -3.63246
lfoot -29.0309 5.73132
ltoes 40.7634
172
root 8.32924 17.9588 -27.8106 13.1313 -86.4484 -6.3846
lowerback -7.79072 0.707158 1.32556
upperback -5.31307 0.695079 -0.343196
thorax -1.10041 0.23871 -1.04919
lowerneck -1.05975 -1.27337 -1.41459
upperneck 0.866368 -1.72336 3.31983
head 0.485463 -0.85031 1.24304
rclavicle -2.08041e-014 1.2424e-015
rhumerus -6.01131 -27.0896 -1.62826
rradius 20.7031
rwrist 19.1432
rhand -7.72366 -45.2573
rfingers 7.12502
rthumb 18.1747 -74.4282
lclavicle -2.08041e-014 1.2424e-015
lhumerus 0.637979 9.39512 -1.94537
lradius 21.3639
lwrist 12.9342
lhand -7.48433 -4.48004
lfingers 7.12502
lthumb 18.405 24.6693
rfemur 7.6239 18.1092 13.074
rtibia -3.59465
rfoot -29.713 -31.094
rtoes 7.24926
lfemur 6.08403 -10.3085 -6.0159
ltibia -3.58354
lfoot -28.8913 5.48973
ltoes 41.1762
173
root 8.3304 17.9584 -27.8131 14.3781 -86.4121 -7.6429
lowerback -7.80826 0.696155 1.37279
upperback -5.29409 0.678032 -0.291659
thorax -1.07164 0.23041 -1.02352
lowerneck -1.04059 -1.24204 -1.52698
upperneck 0.887229 -1.68115 3.37783
head 0.489543 -0.829249 1.28113
rclavicle -7.48549e-015 1.2424e-015
rhumerus -5.91143 -26.6735 -1.64144
rradius 20.6766
rwrist 18.7421
rhand -7.63393 -45.2697
rfingers 7.12502
rthumb 18.261 -74.4325
lclavicle -7.48549e-015 1.2424e-015
lhumerus 0.668085 10.0059 -1.78781
lradius 21.2826
lwrist 12.2675
lhand -7.39011 -4.53157
lfingers 7.12502
lthumb 18.4956 24.6091
rfemur 7.64537 18.2789 13.241
rtibia -3.58285
rfoot -29.9897 -31.1806
rtoes 7.24983
lfemur 6.08229 -10.3572 -5.89054
ltibia -3.57813
lfoot -28.8826 5.42718
ltoes 41.3774
174
root 8.33007 17.9576 -27.8125 14.097 -86.4054 -7.41149
lowerback -7.7965 0.684179 1.38287
upperback -5.2675 0.662882 -0.299564
thorax -1.05077 0.223334 -1.03833
lowerneck -1.11693 -1.2102 -1.43887
upperneck 1.05567 -1.64076 3.20732
head 0.550262 -0.807786 1.21207
rclavicle 2.18663e-015 -8.94531e-016
rhumerus -5.79852 -26.1789 -1.68961
rradius 20.6346
rwrist 18.2455
rhand -7.44893 -45.3763
rfingers 7.12502
rthumb 18.439 -74.5224
lclavicle 2.18663e-015 -8.94531e-016
lhumerus 0.660898 10.1227 -1.7722
lradius 21.2651
lwrist 12.1733
lhand -7.38444 -4.53174
lfingers 7.12502
lthumb 18.501 24.6085
rfemur 7.70564 18.3719 13.2546
rtibia -3.57388
rfoot -30.1855 -31.191
rtoes 8.0181
lfemur 6.14236 -10.4704 -5.96193
ltibia -3.59015
lfoot -28.9495 5.47762
ltoes 41.3816
175
root 8.3302 17.957 -27.8161 13.6837 -86.4059 -7.04639
lowerback -7.76945 0.688465 1.32555
upperback -5.25478 0.673272 -0.306504
thorax -1.05268 0.230304 -1.01279
lowerneck -1.14824 -1.17917 -1.4047
upperneck 1.17873 -1.60178 3.15374
head 0.591535 -0.78746 1.18953
rclavicle 4.09993e-015 2.5345e-015
rhumerus -5.80703 -25.7444 -1.69196
rradius 20.6448
rwrist 17.789
rhand -7.34734 -45.4819
rfingers 7.12502
rthumb 18.5367 -74.6187
lclavicle 4.09993e-015 2.5345e-015
lhumerus 0.6856 10.1535 -1.71809
lradius 21.2473
lwrist 12.1218
lhand -7.51661 -4.62642
lfingers 7.12502
lthumb 18.3739 24.5258
rfemur 7.74853 18.3393 13.2414
rtibia -3.55759
rfoot -30.0231 -31.2283
rtoes 7.76028
lfemur 6.15208 -10.2782 -5.99505
ltibia -3.54313
lfoot -28.7894 5.63572
ltoes 40.7791
176
root 8.33 17.9571 -27.8213 13.4847 -86.417 -6.89426
lowerback -7.74416 0.72354 1.31357
upperback -5.24698 0.721584 -0.362405
thorax -1.05667 0.254259 -1.06057
lowerneck -1.14439 -1.14632 -1.3591
upperneck 1.32242 -1.56364 3.19989
head 0.634433 -0.767254 1.19661
rclavicle 8.69683e-015 3.08116e-015
rhumerus -5.96599 -25.3148 -1.69089
rradius 20.6924
rwrist 17.3358
rhand -7.39214 -45.5866
rfingers 7.12502
rthumb 18.4936 -74.7275
lclavicle 8.69683e-015 3.08116e-015
lhumerus 0.803098 10.294 -1.64117
lradius 21.2125
lwrist 11.9183
lhand -7.7506 -4.86491
lfingers 7.12502
lthumb 18.1488 24.3084
rfemur 7.77968 18.2569 13.2321
rtibia -3.528
rfoot -29.7837 -31.2453
rtoes 6.88736
lfemur 6.17077 -10.0563 -5.98254
ltibia -3.50766
lfoot -28.5743 5.73143
ltoes 40.3042
177
root 8.33077 17.9575 -27.824 14.6923 -86.3685 -8.1345
lowerback -7.74029 0.75793 1.45291
upperback -5.23778 0.759518 -0.415878
thorax -1.04597 0.269392 -1.19127
lowerneck -1.05514 -1.14618 -1.27969
upperneck 1.34154 -1.56707 3.23597
head 0.625005 -0.769227 1.19464
rclavicle -8.38623e-015 -6.4605e-015
rhumerus -6.08379 -25.4206 -1.75785
rradius 20.672
rwrist 17.4492
rhand -7.29104 -45.6188
rfingers 7.12502
rthumb 18.5909 -74.7504
lclavicle -8.38623e-015 -6.4605e-015
lhumerus 0.960192 10.54 -1.53377
lradius 21.1578
lwrist 11.7202
lhand -7.98077 -4.98731
lfingers 7.12502
lthumb 17.9273 24.2064
rfemur 7.77875 18.1114 13.3227
rtibia -3.47234
rfoot -29.774 -31.1525
rtoes 7.08164
lfemur 6.22092 -10.3281 -5.8918
ltibia -3.54203
lfoot -28.7878 5.66674
ltoes 40.7254
178
root 8.33177 17.9593 -27.8247 16.3397 -86.2901 -9.8205
lowerback -7.73688 0.750871 1.57988
upperback -5.21941 0.743478 -0.380471
thorax -1.02836 0.259456 -1.22707
lowerneck -0.934975 -1.14057 -1.35212
upperneck 1.25732 -1.5584 3.31453
head 0.580282 -0.766394 1.23239
rclavicle -1.01877e-014 -4.47266e-015
rhumerus -6.01227 -25.8942 -1.86395
rradius 20.619
rwrist 17.9635
rhand -7.01498 -45.5179
rfingers 7.12502
rthumb 18.8564 -74.624
lclavicle -1.01877e-014 -4.47266e-015
lhumerus 1.0216 11.0635 -1.33001
lradius 21.0617
lwrist 11.2769
lhand -8.0403 -4.98467
lfingers 7.12502
lthumb 17.8701 24.2143
rfemur 7.77911 17.9599 13.4338
rtibia -3.44102
rfoot -29.7797 -31.0472
rtoes 7.38228
lfemur 6.31611 -10.9523 -5.84482
ltibia -3.63898
lfoot -29.3334 5.67642
ltoes 41.199
179
root 8.33202 17.961 -27.8282 16.5253 -86.2946 -10.0075
lowerback -7.77108 0.756847 1.54653
upperback -5.20757 0.752997 -0.358098
thorax -0.997569 0.265798 -1.18429
lowerneck -0.914867 -1.12536 -1.54828
upperneck 1.262 -1.53923 3.52396
head 0.582352 -0.756726 1.33264
rclavicle -6.8208e-015 2.98177e-015
rhumerus -5.98918 -26.0249 -1.91635
rradius 20.6217
rwrist 18.0539
rhand -6.84708 -45.5043
rfingers 7.12502
rthumb 19.0179 -74.5945
lclavicle -6.8208e-015 2.98177e-015
lhumerus 1.09895 11.5817 -1.14648
lradius 20.9616
lwrist 10.7514
lhand -8.01711 -4.90118
lfingers 7.12502
lthumb 17.8924 24.2958
rfemur 7.75156 17.9342 13.4243
rtibia -3.43992
rfoot -29.6342 -31.0555
rtoes 6.50209
lfemur 6.3555 -11.1934 -5.89498
ltibia -3.70115
lfoot -29.5532 5.75629
ltoes 41.1304
180
root 8.33301 17.9604 -27.8361 16.1856 -86.3145 -9.63293
lowerback -7.82651 0.79781 1.45393
upperback -5.21622 0.811338 -0.407594
thorax -0.974618 0.29628 -1.17881
lowerneck -1.01699 -1.12282 -1.58139
upperneck 1.43785 -1.54286 3.6694
head 0.656202 -0.755924 1.38412
rclavicle 1.66606e-014 5.96354e-015
rhumerus -6.16453 -25.9575 -1.91373
rradius 20.6376
rwrist 17.9386
rhand -6.79956 -45.5464
rfingers 7.12502
rthumb 19.0636 -74.6321
lclavicle 1.66606e-014 5.96354e-015
lhumerus 1.30093 11.8063 -1.05034
lradius 20.9223
lwrist 10.6284
lhand -8.23472 -4.82842
lfingers 7.12502
lthumb 17.683 24.3875
rfemur 7.7165 18.0343 13.4425
rtibia -3.43228
rfoot -29.5794 -31.1517
rtoes 5.79286
lfemur 6.27953 -10.9004 -5.84439
ltibia -3.65812
lfoot -29.2881 5.73463
ltoes 40.8433
